<?xml version="1.0" encoding="UTF-8"?>
<svg xmlns="http://www.w3.org/2000/svg" viewBox="0 0 1200 630" width="1200" height="630" role="img" aria-label="SafeCareer 大学生就业反诈">
  <defs>
    <linearGradient id="bg" x1="0" y1="0" x2="1" y2="1">
      <stop offset="0%" stop-color="#22c55e"/>
      <stop offset="100%" stop-color="#16a34a"/>
    </linearGradient>
    <filter id="s" x="-20%" y="-20%" width="140%" height="140%">
      <feDropShadow dx="0" dy="8" stdDeviation="12" flood-color="#0a3d1f" flood-opacity="0.35"/>
    </filter>
  </defs>

  <!-- Background -->
  <rect width="1200" height="630" rx="28" fill="url(#bg)"/>

  <!-- Shield -->
  <g transform="translate(250,135) scale(1.3)" filter="url(#s)">
    <path d="M220 0 0 70v150c0 136 95 250 220 281 125-31 220-145 220-281V70L220 0Z" fill="#1e8e41" opacity="0.3"/>
    <path d="M220 0 0 70v150c0 136 95 250 220 281 125-31 220-145 220-281V70L220 0Z" fill="#22c55e"/>
    <path d="M140 210l60 60 140-140" fill="none" stroke="#fff" stroke-width="28" stroke-linecap="round" stroke-linejoin="round"/>
  </g>

  <!-- Title -->
  <g fill="#ffffff">
    <text x="580" y="290" font-size="64" font-family="'Segoe UI', 'PingFang SC', 'Hiragino Sans GB', 'Microsoft Yahei', system-ui, -apple-system, sans-serif" font-weight="700">SafeCareer</text>
    <text x="580" y="360" font-size="40" font-family="'Segoe UI', 'PingFang SC', 'Hiragino Sans GB', 'Microsoft Yahei', system-ui, -apple-system, sans-serif" opacity="0.95">大学生就业反诈助手</text>
  </g>
</svg>

